	<svg id="viewport" width="800" height="600" version="1.1" xmlns="http://www.w3.org/2000/svg">
<head>
	<style>
		svg {
  
  /*background-color: #eae7d8;*/
  background-color: #fffceb;
  margin: 0 auto;
  width: 800px;
  display: block;
}

body {
  background-color: #eae2bc;
  margin: 0 auto;
  font-family: tahoma, verdana, sans-serif;
}

h1, h2 {
  text-align: center;
}

h1 {
  font-size: 1.5em;
}

h2 {
  font-size: 1em;
}

.tile {
  /*fill: #F6F6F6;*/
  fill: #DfDfDf;
  fill-opacity: .2;
  stroke: #BfBfBf;
  stroke-width: 1;
  stroke-linecap: butt;
  stroke-linejoin: miter;
  stroke-miterlimit: 4;
  stroke-opacity: 1;
  stroke-dasharray: none;
  stroke-dashoffset: 0;
  display: inline;
}

.tile:hover, .probed:hover, .path:hover {
  stroke: #ff0000;
  stroke-dasharray: 2 2;
  fill: #ffcccc;
}

.room {
  fill: none;
  stroke: gray;
  stroke-width: 2;
}

.probed {
  fill: #FFFFCC;
  stroke: gold;
}

.path {
  fill: #EEEEFF;
  stroke: #9999FF;
}

circle:hover {
  stroke: #000099;
  fill-opacity: 1;
  fill: #CCCCFF;
}

.door:hover {
  stroke-width: 10;
}

.furniture {
  stroke: #800000;
  fill: #ffcbcb;
}

.player circle {
  fill-opacity: 1;
  fill: #c66666;
  stroke-width: 2;
  stroke: maroon;
}

.enemy circle {
  fill-opacity: 1;
  fill: #64944a;
  stroke-width: 2;
  stroke: #297400;
}
	</style>
</head>
<rect x="161" y="30" width="30" height="30" class="tile" id="tile-1-0" data-room="room-1-0-4-2">
  </rect><rect x="192" y="30" width="30" height="30" class="tile" id="tile-2-0" data-room="room-1-0-4-2"></rect><rect x="223" y="30" width="30" height="30" class="tile" id="tile-3-0" data-room="room-1-0-4-2"></rect><rect x="254" y="30" width="30" height="30" class="tile" id="tile-4-0" data-room="room-1-0-4-2"></rect><rect x="285" y="30" width="30" height="30" class="tile" id="tile-5-0" data-room="room-5-0-8-2"></rect><rect x="316" y="30" width="30" height="30" class="tile" id="tile-6-0" data-room="room-5-0-8-2" data-occupied="foe"></rect><rect x="347" y="30" width="30" height="30" class="tile" id="tile-7-0" data-room="room-5-0-8-2"></rect><rect x="378" y="30" width="30" height="30" class="tile" id="tile-8-0" data-room="room-5-0-8-2"></rect><rect x="409" y="30" width="30" height="30" class="tile" id="tile-9-0" data-room="room-9-0-11-4" data-occupied="foe"></rect><rect x="440" y="30" width="30" height="30" class="tile" id="" data-room="room-9-0-11-4"></rect><rect x="471" y="30" width="30" height="30" class="tile" id="" data-room="room-9-0-11-4"></rect><rect x="130" y="61" width="30" height="30" class="tile" id="tile-0-1"></rect><rect x="161" y="61" width="30" height="30" class="tile" id="tile-1-1" data-room="room-1-0-4-2"></rect><rect x="192" y="61" width="30" height="30" class="tile" id="tile-2-1" data-room="room-1-0-4-2" data-occupied="foe"></rect><rect x="223" y="61" width="30" height="30" class="tile" id="tile-3-1" data-room="room-1-0-4-2" data-occupied="foe"></rect><rect x="254" y="61" width="30" height="30" class="tile" id="tile-4-1" data-room="room-1-0-4-2"></rect><rect x="285" y="61" width="30" height="30" class="tile" id="tile-5-1" data-room="room-5-0-8-2"></rect><rect x="316" y="61" width="30" height="30" class="tile" id="tile-6-1" data-room="room-5-0-8-2" data-occupied="foe"></rect><rect x="347" y="61" width="30" height="30" class="tile" id="tile-7-1" data-room="room-5-0-8-2"></rect><rect x="378" y="61" width="30" height="30" class="tile" id="tile-8-1" data-room="room-5-0-8-2"></rect><rect x="409" y="61" width="30" height="30" class="tile" id="tile-9-1" data-room="room-9-0-11-4"></rect><rect x="440" y="61" width="30" height="30" class="tile" id="" data-room="room-9-0-11-4"></rect><rect x="471" y="61" width="30" height="30" class="tile" id="" data-room="room-9-0-11-4"></rect><rect x="130" y="92" width="30" height="30" class="tile" id="tile-0-2"></rect><rect x="161" y="92" width="30" height="30" class="tile" id="tile-1-2" data-room="room-1-0-4-2"></rect><rect x="192" y="92" width="30" height="30" class="tile" id="tile-2-2" data-room="room-1-0-4-2"></rect><rect x="223" y="92" width="30" height="30" class="tile" id="tile-3-2" data-room="room-1-0-4-2"></rect><rect x="254" y="92" width="30" height="30" class="tile" id="tile-4-2" data-room="room-1-0-4-2"></rect><rect x="285" y="92" width="30" height="30" class="tile" id="tile-5-2" data-room="room-5-0-8-2"></rect><rect x="316" y="92" width="30" height="30" class="tile" id="tile-6-2" data-room="room-5-0-8-2" data-occupied="foe"></rect><rect x="347" y="92" width="30" height="30" class="tile" id="tile-7-2" data-room="room-5-0-8-2"></rect><rect x="378" y="92" width="30" height="30" class="tile" id="tile-8-2" data-room="room-5-0-8-2"></rect><rect x="409" y="92" width="30" height="30" class="tile" id="tile-9-2" data-room="room-9-0-11-4" data-occupied="foe"></rect><rect x="440" y="92" width="30" height="30" class="tile" id="" data-room="room-9-0-11-4"></rect><rect x="471" y="92" width="30" height="30" class="tile" id="" data-room="room-9-0-11-4"></rect><rect x="130" y="123" width="30" height="30" class="tile" id="tile-0-3"></rect><rect x="161" y="123" width="30" height="30" class="tile" id="tile-1-3" data-room="room-1-3-4-7"></rect><rect x="192" y="123" width="30" height="30" class="tile" id="tile-2-3" data-room="room-1-3-4-7"></rect><rect x="223" y="123" width="30" height="30" class="tile" id="tile-3-3" data-room="room-1-3-4-7"></rect><rect x="254" y="123" width="30" height="30" class="tile" id="tile-4-3" data-room="room-1-3-4-7"></rect><rect x="285" y="123" width="30" height="30" class="tile" id="tile-5-3" data-room="room-5-3-8-7"></rect><rect x="316" y="123" width="30" height="30" class="tile" id="tile-6-3" data-room="room-5-3-8-7"></rect><rect x="347" y="123" width="30" height="30" class="tile" id="tile-7-3" data-room="room-5-3-8-7"></rect><rect x="378" y="123" width="30" height="30" class="tile" id="tile-8-3" data-room="room-5-3-8-7"></rect><rect x="409" y="123" width="30" height="30" class="tile" id="tile-9-3" data-room="room-9-0-11-4" data-occupied="foe"></rect><rect x="440" y="123" width="30" height="30" class="tile" id="tile-10-3" data-room="room-9-0-11-4"></rect><rect x="471" y="123" width="30" height="30" class="tile" id="tile-11-3" data-room="room-9-0-11-4"></rect><rect x="130" y="154" width="30" height="30" class="tile" id="tile-0-4"></rect><rect x="161" y="154" width="30" height="30" class="tile" id="" data-room="room-1-3-4-7"></rect><rect x="192" y="154" width="30" height="30" class="tile" id="" data-room="room-1-3-4-7"></rect><rect x="223" y="154" width="30" height="30" class="tile" id="tile-3-4" data-room="room-1-3-4-7"></rect><rect x="254" y="154" width="30" height="30" class="tile" id="tile-4-4" data-room="room-1-3-4-7" data-occupied="foe"></rect><rect x="285" y="154" width="30" height="30" class="tile" id="tile-5-4" data-room="room-5-3-8-7"></rect><rect x="316" y="154" width="30" height="30" class="tile" id="" data-room="room-5-3-8-7"></rect><rect x="347" y="154" width="30" height="30" class="tile" id="" data-room="room-5-3-8-7"></rect><rect x="378" y="154" width="30" height="30" class="tile" id="" data-room="room-5-3-8-7"></rect><rect x="409" y="154" width="30" height="30" class="tile" id="tile-9-4" data-room="room-9-0-11-4"></rect><rect x="440" y="154" width="30" height="30" class="tile" id="" data-room="room-9-0-11-4"></rect><rect x="471" y="154" width="30" height="30" class="tile" id="tile-11-4" data-room="room-9-0-11-4"></rect><rect x="130" y="185" width="30" height="30" class="tile" id="tile-0-5"></rect><rect x="161" y="185" width="30" height="30" class="tile" id="" data-room="room-1-3-4-7"></rect><rect x="192" y="185" width="30" height="30" class="tile" id="" data-room="room-1-3-4-7"></rect><rect x="223" y="185" width="30" height="30" class="tile" id="tile-3-5" data-room="room-1-3-4-7" data-occupied="foe"></rect><rect x="254" y="185" width="30" height="30" class="tile" id="tile-4-5" data-room="room-1-3-4-7"></rect><rect x="285" y="185" width="30" height="30" class="tile" id="tile-5-5" data-room="room-5-3-8-7"></rect><rect x="316" y="185" width="30" height="30" class="tile" id="" data-room="room-5-3-8-7"></rect><rect x="347" y="185" width="30" height="30" class="tile" id="" data-room="room-5-3-8-7"></rect><rect x="378" y="185" width="30" height="30" class="tile" id="" data-room="room-5-3-8-7"></rect><rect x="409" y="185" width="30" height="30" class="tile" id="tile-9-5"></rect><rect x="440" y="185" width="30" height="30" class="tile" id="tile-10-5"></rect><rect x="471" y="185" width="30" height="30" class="tile" id="tile-11-5"></rect><rect x="502" y="185" width="30" height="30" class="tile" id="tile-12-5"></rect><rect x="533" y="185" width="30" height="30" class="tile" id="tile-13-5"></rect><rect x="564" y="185" width="30" height="30" class="tile" id="tile-14-5"></rect><rect x="595" y="185" width="30" height="30" class="tile" id="tile-15-5"></rect><rect x="626" y="185" width="30" height="30" class="tile" id="tile-16-5"></rect><rect x="130" y="216" width="30" height="30" class="tile" id="tile-0-6"></rect><rect x="161" y="216" width="30" height="30" class="tile" id="" data-room="room-1-3-4-7"></rect><rect x="192" y="216" width="30" height="30" class="tile" id="" data-room="room-1-3-4-7"></rect><rect x="223" y="216" width="30" height="30" class="tile" id="tile-3-6" data-room="room-1-3-4-7"></rect><rect x="254" y="216" width="30" height="30" class="tile" id="tile-4-6" data-room="room-1-3-4-7"></rect><rect x="285" y="216" width="30" height="30" class="tile" id="tile-5-6" data-room="room-5-3-8-7"></rect><rect x="316" y="216" width="30" height="30" class="tile" id="tile-6-6" data-room="room-5-3-8-7" data-occupied="foe"></rect><rect x="347" y="216" width="30" height="30" class="tile" id="tile-7-6" data-room="room-5-3-8-7" data-occupied="foe"></rect><rect x="378" y="216" width="30" height="30" class="tile" id="tile-8-6" data-room="room-5-3-8-7"></rect><rect x="409" y="216" width="30" height="30" class="tile" id="tile-9-6"></rect><rect x="440" y="216" width="30" height="30" class="tile" id="tile-10-6" data-room="room-10-6-15-10"></rect><rect x="471" y="216" width="30" height="30" class="tile" id="" data-room="room-10-6-15-10"></rect><rect x="502" y="216" width="30" height="30" class="tile" id="" data-room="room-10-6-15-10"></rect><rect x="533" y="216" width="30" height="30" class="tile" id="" data-room="room-10-6-15-10"></rect><rect x="564" y="216" width="30" height="30" class="tile" id="" data-room="room-10-6-15-10"></rect><rect x="595" y="216" width="30" height="30" class="tile" id="tile-15-6" data-room="room-10-6-15-10"></rect><rect x="626" y="216" width="30" height="30" class="tile" id="tile-16-6"></rect><rect x="130" y="247" width="30" height="30" class="tile" id="tile-0-7"></rect><rect x="161" y="247" width="30" height="30" class="tile" id="tile-1-7" data-room="room-1-3-4-7"></rect><rect x="192" y="247" width="30" height="30" class="tile" id="tile-2-7" data-room="room-1-3-4-7"></rect><rect x="223" y="247" width="30" height="30" class="tile" id="tile-3-7" data-room="room-1-3-4-7"></rect><rect x="254" y="247" width="30" height="30" class="tile" id="tile-4-7" data-room="room-1-3-4-7"></rect><rect x="285" y="247" width="30" height="30" class="tile" id="tile-5-7" data-room="room-5-3-8-7"></rect><rect x="316" y="247" width="30" height="30" class="tile" id="tile-6-7" data-room="room-5-3-8-7"></rect><rect x="347" y="247" width="30" height="30" class="tile" id="tile-7-7" data-room="room-5-3-8-7"></rect><rect x="378" y="247" width="30" height="30" class="tile" id="tile-8-7" data-room="room-5-3-8-7"></rect><rect x="409" y="247" width="30" height="30" class="tile" id="tile-9-7"></rect><rect x="440" y="247" width="30" height="30" class="tile" id="" data-room="room-10-6-15-10"></rect><rect x="471" y="247" width="30" height="30" class="tile" id="tile-11-7" data-room="room-10-6-15-10"></rect><rect x="502" y="247" width="30" height="30" class="tile" id="tile-12-7" data-room="room-10-6-15-10" data-occupied="foe"></rect><rect x="533" y="247" width="30" height="30" class="tile" id="tile-13-7" data-room="room-10-6-15-10"></rect><rect x="564" y="247" width="30" height="30" class="tile" id="tile-14-7" data-room="room-10-6-15-10" data-occupied="foe"></rect><rect x="595" y="247" width="30" height="30" class="tile" id="tile-15-7" data-room="room-10-6-15-10"></rect><rect x="626" y="247" width="30" height="30" class="tile" id="tile-16-7"></rect><rect x="130" y="278" width="30" height="30" class="tile" id="tile-0-8"></rect><rect x="161" y="278" width="30" height="30" class="tile" id="tile-1-8"></rect><rect x="192" y="278" width="30" height="30" class="tile" id="tile-2-8"></rect><rect x="223" y="278" width="30" height="30" class="tile" id="tile-3-8"></rect><rect x="254" y="278" width="30" height="30" class="tile" id="tile-4-8"></rect><rect x="285" y="278" width="30" height="30" class="tile" id="tile-5-8"></rect><rect x="316" y="278" width="30" height="30" class="tile" id="tile-6-8"></rect><rect x="347" y="278" width="30" height="30" class="tile" id="tile-7-8"></rect><rect x="378" y="278" width="30" height="30" class="tile" id="tile-8-8"></rect><rect x="409" y="278" width="30" height="30" class="tile" id="tile-9-8"></rect><rect x="440" y="278" width="30" height="30" class="tile" id="tile-10-8" data-room="room-10-6-15-10"></rect><rect x="471" y="278" width="30" height="30" class="tile" id="" data-room="room-10-6-15-10"></rect><rect x="502" y="278" width="30" height="30" class="tile" id="" data-room="room-10-6-15-10"></rect><rect x="533" y="278" width="30" height="30" class="tile" id="" data-room="room-10-6-15-10"></rect><rect x="564" y="278" width="30" height="30" class="tile" id="tile-14-8" data-room="room-10-6-15-10"></rect><rect x="595" y="278" width="30" height="30" class="tile" id="tile-15-8" data-room="room-10-6-15-10"></rect><rect x="626" y="278" width="30" height="30" class="tile" id="tile-16-8"></rect><rect x="130" y="309" width="30" height="30" class="tile" id="tile-0-9"></rect><rect x="161" y="309" width="30" height="30" class="tile" id="tile-1-9" data-room="room-1-9-4-12"></rect><rect x="192" y="309" width="30" height="30" class="tile" id="tile-2-9" data-room="room-1-9-4-12"></rect><rect x="223" y="309" width="30" height="30" class="tile" id="" data-room="room-1-9-4-12"></rect><rect x="254" y="309" width="30" height="30" class="tile" id="" data-room="room-1-9-4-12"></rect><rect x="409" y="309" width="30" height="30" class="tile" id="tile-9-9"></rect><rect x="440" y="309" width="30" height="30" class="tile" id="tile-10-9" data-room="room-10-6-15-10"></rect><rect x="471" y="309" width="30" height="30" class="tile" id="" data-room="room-10-6-15-10"></rect><rect x="502" y="309" width="30" height="30" class="tile" id="" data-room="room-10-6-15-10"></rect><rect x="533" y="309" width="30" height="30" class="tile" id="" data-room="room-10-6-15-10"></rect><rect x="564" y="309" width="30" height="30" class="tile" id="tile-14-9" data-room="room-10-6-15-10"></rect><rect x="595" y="309" width="30" height="30" class="tile" id="tile-15-9" data-room="room-10-6-15-10"></rect><rect x="626" y="309" width="30" height="30" class="tile" id="tile-16-9"></rect><rect x="130" y="340" width="30" height="30" class="tile" id="tile-0-10"></rect><rect x="161" y="340" width="30" height="30" class="tile" id="tile-1-10" data-room="room-1-9-4-12"></rect><rect x="192" y="340" width="30" height="30" class="tile" id="tile-2-10" data-room="room-1-9-4-12" data-occupied="foe"></rect><rect x="223" y="340" width="30" height="30" class="tile" id="" data-room="room-1-9-4-12"></rect><rect x="254" y="340" width="30" height="30" class="tile" id="" data-room="room-1-9-4-12"></rect><rect x="409" y="340" width="30" height="30" class="tile" id="tile-9-10"></rect><rect x="440" y="340" width="30" height="30" class="tile" id="tile-10-10" data-room="room-10-6-15-10"></rect><rect x="471" y="340" width="30" height="30" class="tile" id="tile-11-10" data-room="room-10-6-15-10" data-occupied="foe"></rect><rect x="502" y="340" width="30" height="30" class="tile" id="tile-12-10" data-room="room-10-6-15-10"></rect><rect x="533" y="340" width="30" height="30" class="tile" id="tile-13-10" data-room="room-10-6-15-10"></rect><rect x="564" y="340" width="30" height="30" class="tile" id="tile-14-10" data-room="room-10-6-15-10" data-occupied="foe"></rect><rect x="595" y="340" width="30" height="30" class="tile" id="tile-15-10" data-room="room-10-6-15-10"></rect><rect x="626" y="340" width="30" height="30" class="tile" id="tile-16-10"></rect><rect x="130" y="371" width="30" height="30" class="tile" id="tile-0-11"></rect><rect x="161" y="371" width="30" height="30" class="tile" id="tile-1-11" data-room="room-1-9-4-12"></rect><rect x="192" y="371" width="30" height="30" class="tile" id="tile-2-11" data-room="room-1-9-4-12" data-occupied="foe"></rect><rect x="223" y="371" width="30" height="30" class="tile" id="" data-room="room-1-9-4-12"></rect><rect x="254" y="371" width="30" height="30" class="tile" id="" data-room="room-1-9-4-12"></rect><rect x="409" y="371" width="30" height="30" class="tile" id="tile-9-11"></rect><rect x="440" y="371" width="30" height="30" class="tile" id="tile-10-11"></rect><rect x="471" y="371" width="30" height="30" class="tile" id="tile-11-11"></rect><rect x="502" y="371" width="30" height="30" class="tile" id="tile-12-11"></rect><rect x="533" y="371" width="30" height="30" class="tile" id="tile-13-11"></rect><rect x="564" y="371" width="30" height="30" class="tile" id="tile-14-11"></rect><rect x="595" y="371" width="30" height="30" class="tile" id="tile-15-11"></rect><rect x="626" y="371" width="30" height="30" class="tile" id="tile-16-11"></rect><rect x="130" y="402" width="30" height="30" class="tile" id="tile-0-12"></rect><rect x="161" y="402" width="30" height="30" class="tile" id="tile-1-12" data-room="room-1-9-4-12"></rect><rect x="192" y="402" width="30" height="30" class="tile" id="tile-2-12" data-room="room-1-9-4-12"></rect><rect x="223" y="402" width="30" height="30" class="tile" id="tile-3-12" data-room="room-1-9-4-12"></rect><rect x="254" y="402" width="30" height="30" class="tile" id="tile-4-12" data-room="room-1-9-4-12"></rect><rect x="285" y="402" width="30" height="30" class="tile" id="" data-room="room-5-12-8-16"></rect><rect x="316" y="402" width="30" height="30" class="tile" id="" data-room="room-5-12-8-16"></rect><rect x="347" y="402" width="30" height="30" class="tile" id="" data-room="room-5-12-8-16"></rect><rect x="378" y="402" width="30" height="30" class="tile" id="tile-8-12" data-room="room-5-12-8-16"></rect><rect x="409" y="402" width="30" height="30" class="tile" id="tile-9-12" data-room="room-9-12-11-16"></rect><rect x="440" y="402" width="30" height="30" class="tile" id="tile-10-12" data-room="room-9-12-11-16"></rect><rect x="471" y="402" width="30" height="30" class="tile" id="tile-11-12" data-room="room-9-12-11-16"></rect><rect x="502" y="402" width="30" height="30" class="tile" id="tile-12-12"></rect><rect x="533" y="402" width="30" height="30" class="tile" id="tile-13-12"></rect><rect x="564" y="402" width="30" height="30" class="tile" id="tile-14-12" data-room="room-14-12-17-16"></rect><rect x="595" y="402" width="30" height="30" class="tile" id="" data-room="room-14-12-17-16"></rect><rect x="626" y="402" width="30" height="30" class="tile" id="" data-room="room-14-12-17-16"></rect><rect x="657" y="402" width="30" height="30" class="tile" id="" data-room="room-14-12-17-16"></rect><rect x="130" y="433" width="30" height="30" class="tile" id="tile-0-13"></rect><rect x="161" y="433" width="30" height="30" class="tile" id="tile-1-13" data-room="room-1-13-4-16"></rect><rect x="192" y="433" width="30" height="30" class="tile" id="tile-2-13" data-room="room-1-13-4-16"></rect><rect x="223" y="433" width="30" height="30" class="tile" id="tile-3-13" data-room="room-1-13-4-16"></rect><rect x="254" y="433" width="30" height="30" class="tile" id="tile-4-13" data-room="room-1-13-4-16"></rect><rect x="285" y="433" width="30" height="30" class="tile" id="tile-5-13" data-room="room-5-12-8-16"></rect><rect x="316" y="433" width="30" height="30" class="tile" id="tile-6-13" data-room="room-5-12-8-16"></rect><rect x="347" y="433" width="30" height="30" class="tile" id="tile-7-13" data-room="room-5-12-8-16" data-occupied="foe"></rect><rect x="378" y="433" width="30" height="30" class="tile" id="tile-8-13" data-room="room-5-12-8-16"></rect><rect x="409" y="433" width="30" height="30" class="tile" id="tile-9-13" data-room="room-9-12-11-16"></rect><rect x="440" y="433" width="30" height="30" class="tile" id="tile-10-13" data-room="room-9-12-11-16" data-occupied="foe"></rect><rect x="471" y="433" width="30" height="30" class="tile" id="tile-11-13" data-room="room-9-12-11-16"></rect><rect x="502" y="433" width="30" height="30" class="tile" id="tile-12-13"></rect><rect x="533" y="433" width="30" height="30" class="tile" id="tile-13-13"></rect><rect x="564" y="433" width="30" height="30" class="tile" id="tile-14-13" data-room="room-14-12-17-16"></rect><rect x="595" y="433" width="30" height="30" class="tile" id="tile-15-13" data-room="room-14-12-17-16"></rect><rect x="626" y="433" width="30" height="30" class="tile" id="tile-16-13" data-room="room-14-12-17-16"></rect><rect x="657" y="433" width="30" height="30" class="tile" id="tile-17-13" data-room="room-14-12-17-16"></rect><rect x="130" y="464" width="30" height="30" class="tile" id="tile-0-14"></rect><rect x="161" y="464" width="30" height="30" class="tile" id="tile-1-14" data-room="room-1-13-4-16" data-occupied="friendly"></rect><rect x="192" y="464" width="30" height="30" class="tile" id="tile-2-14" data-room="room-1-13-4-16" data-occupied="friendly"></rect><rect x="223" y="464" width="30" height="30" class="tile" id="tile-3-14" data-room="room-1-13-4-16"></rect><rect x="254" y="464" width="30" height="30" class="tile" id="tile-4-14" data-room="room-1-13-4-16"></rect><rect x="285" y="464" width="30" height="30" class="tile" id="" data-room="room-5-12-8-16"></rect><rect x="316" y="464" width="30" height="30" class="tile" id="" data-room="room-5-12-8-16"></rect><rect x="347" y="464" width="30" height="30" class="tile" id="tile-7-14" data-room="room-5-12-8-16"></rect><rect x="378" y="464" width="30" height="30" class="tile" id="tile-8-14" data-room="room-5-12-8-16" data-occupied="foe"></rect><rect x="409" y="464" width="30" height="30" class="tile" id="tile-9-14" data-room="room-9-12-11-16"></rect><rect x="440" y="464" width="30" height="30" class="tile" id="tile-10-14" data-room="room-9-12-11-16"></rect><rect x="471" y="464" width="30" height="30" class="tile" id="" data-room="room-9-12-11-16"></rect><rect x="502" y="464" width="30" height="30" class="tile" id="tile-12-14"></rect><rect x="533" y="464" width="30" height="30" class="tile" id="tile-13-14"></rect><rect x="564" y="464" width="30" height="30" class="tile" id="tile-14-14" data-room="room-14-12-17-16"></rect><rect x="595" y="464" width="30" height="30" class="tile" id="tile-15-14" data-room="room-14-12-17-16"></rect><rect x="626" y="464" width="30" height="30" class="tile" id="tile-16-14" data-room="room-14-12-17-16" data-occupied="foe"></rect><rect x="657" y="464" width="30" height="30" class="tile" id="tile-17-14" data-room="room-14-12-17-16"></rect><rect x="130" y="495" width="30" height="30" class="tile" id="tile-0-15"></rect><rect x="161" y="495" width="30" height="30" class="tile" id="tile-1-15" data-room="room-1-13-4-16"></rect><rect x="192" y="495" width="30" height="30" class="tile" id="tile-2-15" data-room="room-1-13-4-16"></rect><rect x="223" y="495" width="30" height="30" class="tile" id="tile-3-15" data-room="room-1-13-4-16"></rect><rect x="254" y="495" width="30" height="30" class="tile" id="tile-4-15" data-room="room-1-13-4-16"></rect><rect x="285" y="495" width="30" height="30" class="tile" id="" data-room="room-5-12-8-16"></rect><rect x="316" y="495" width="30" height="30" class="tile" id="" data-room="room-5-12-8-16"></rect><rect x="347" y="495" width="30" height="30" class="tile" id="tile-7-15" data-room="room-5-12-8-16"></rect><rect x="378" y="495" width="30" height="30" class="tile" id="tile-8-15" data-room="room-5-12-8-16"></rect><rect x="409" y="495" width="30" height="30" class="tile" id="tile-9-15" data-room="room-9-12-11-16"></rect><rect x="440" y="495" width="30" height="30" class="tile" id="tile-10-15" data-room="room-9-12-11-16" data-occupied="foe"></rect><rect x="471" y="495" width="30" height="30" class="tile" id="" data-room="room-9-12-11-16"></rect><rect x="502" y="495" width="30" height="30" class="tile" id="tile-12-15"></rect><rect x="533" y="495" width="30" height="30" class="tile" id="tile-13-15"></rect><rect x="564" y="495" width="30" height="30" class="tile" id="tile-14-15" data-room="room-14-12-17-16"></rect><rect x="595" y="495" width="30" height="30" class="tile" id="tile-15-15" data-room="room-14-12-17-16" data-occupied="foe"></rect><rect x="626" y="495" width="30" height="30" class="tile" id="tile-16-15" data-room="room-14-12-17-16"></rect><rect x="657" y="495" width="30" height="30" class="tile" id="" data-room="room-14-12-17-16"></rect><rect x="130" y="526" width="30" height="30" class="tile" id="tile-0-16"></rect><rect x="161" y="526" width="30" height="30" class="tile" id="tile-1-16" data-room="room-1-13-4-16"></rect><rect x="192" y="526" width="30" height="30" class="tile" id="tile-2-16" data-room="room-1-13-4-16"></rect><rect x="223" y="526" width="30" height="30" class="tile" id="tile-3-16" data-room="room-1-13-4-16"></rect><rect x="254" y="526" width="30" height="30" class="tile" id="tile-4-16" data-room="room-1-13-4-16"></rect><rect x="285" y="526" width="30" height="30" class="tile" id="" data-room="room-5-12-8-16"></rect><rect x="316" y="526" width="30" height="30" class="tile" id="" data-room="room-5-12-8-16"></rect><rect x="347" y="526" width="30" height="30" class="tile" id="tile-7-16" data-room="room-5-12-8-16"></rect><rect x="378" y="526" width="30" height="30" class="tile" id="tile-8-16" data-room="room-5-12-8-16"></rect><rect x="409" y="526" width="30" height="30" class="tile" id="tile-9-16" data-room="room-9-12-11-16"></rect><rect x="440" y="526" width="30" height="30" class="tile" id="tile-10-16" data-room="room-9-12-11-16"></rect><rect x="471" y="526" width="30" height="30" class="tile" id="" data-room="room-9-12-11-16"></rect><rect x="502" y="526" width="30" height="30" class="tile" id="tile-12-16"></rect><rect x="533" y="526" width="30" height="30" class="tile" id="tile-13-16"></rect><rect x="564" y="526" width="30" height="30" class="tile" id="tile-14-16" data-room="room-14-12-17-16"></rect><rect x="595" y="526" width="30" height="30" class="tile" id="" data-room="room-14-12-17-16"></rect><rect x="626" y="526" width="30" height="30" class="tile" id="" data-room="room-14-12-17-16"></rect><rect x="657" y="526" width="30" height="30" class="tile" id="" data-room="room-14-12-17-16"></rect><rect x="130" y="557" width="30" height="30" class="tile" id="tile-0-17"></rect><rect x="161" y="557" width="30" height="30" class="tile" id="tile-1-17"></rect><rect x="192" y="557" width="30" height="30" class="tile" id="tile-2-17"></rect><rect x="223" y="557" width="30" height="30" class="tile" id="tile-3-17"></rect><rect x="254" y="557" width="30" height="30" class="tile" id="tile-4-17"></rect><rect x="285" y="557" width="30" height="30" class="tile" id="tile-5-17"></rect><rect x="316" y="557" width="30" height="30" class="tile" id="tile-6-17"></rect><rect x="347" y="557" width="30" height="30" class="tile" id="tile-7-17"></rect><rect x="378" y="557" width="30" height="30" class="tile" id="tile-8-17"></rect><rect x="409" y="557" width="30" height="30" class="tile" id="tile-9-17"></rect><rect x="440" y="557" width="30" height="30" class="tile" id="tile-10-17"></rect><rect x="471" y="557" width="30" height="30" class="tile" id="tile-11-17"></rect><rect x="502" y="557" width="30" height="30" class="tile" id="tile-12-17"></rect><rect x="533" y="557" width="30" height="30" class="tile" id="tile-13-17"></rect><rect x="161" y="30" width="123" height="92" class="room"></rect><rect x="285" y="30" width="123" height="92" class="room"></rect><rect x="409" y="30" width="92" height="154" class="room"></rect><rect x="161" y="309" width="123" height="123" class="room"></rect><rect x="161" y="123" width="123" height="154" class="room"></rect><rect x="285" y="123" width="123" height="154" class="room"></rect><rect x="161" y="433" width="123" height="123" class="room"></rect><rect x="285" y="402" width="123" height="154" class="room"></rect><rect x="409" y="402" width="92" height="154" class="room"></rect><rect x="564" y="402" width="123" height="154" class="room"></rect><rect x="440" y="216" width="185" height="154" class="room"></rect><rect x="443" y="33" width="54" height="84" class="furniture"></rect><rect x="443" y="157" width="24" height="24" class="furniture"></rect><rect x="164" y="157" width="54" height="84" class="furniture"></rect><rect x="319" y="157" width="84" height="54" class="furniture"></rect><rect x="226" y="312" width="54" height="84" class="furniture"></rect><rect x="288" y="405" width="84" height="24" class="furniture"></rect><rect x="288" y="467" width="54" height="84" class="furniture"></rect><rect x="474" y="467" width="24" height="84" class="furniture"></rect><rect x="598" y="405" width="84" height="24" class="furniture"></rect><rect x="598" y="529" width="84" height="24" class="furniture"></rect><rect x="660" y="498" width="24" height="24" class="furniture"></rect><rect x="474" y="281" width="84" height="54" class="furniture"></rect><rect x="505" y="219" width="84" height="24" class="furniture"></rect><rect x="474" y="219" width="24" height="24" class="furniture"></rect><rect x="443" y="250" width="24" height="24" class="furniture"></rect><line x1="223" y1="123" x2="253" y2="123" stroke-width="4" data-state="closed" class="door" id="door-3-2-3-3" stroke="red"></line><line x1="285" y1="61" x2="285" y2="91" stroke-width="4" data-state="closed" class="door" id="door-4-1-5-1" stroke="red"></line><line x1="409" y1="61" x2="409" y2="91" stroke-width="4" data-state="closed" class="door" id="door-8-1-9-1" stroke="red"></line><line x1="223" y1="278" x2="253" y2="278" stroke-width="4" data-state="closed" class="door" id="door-3-7-3-8" stroke="red"></line><line x1="161" y1="340" x2="161" y2="370" stroke-width="4" data-state="closed" class="door" id="door-0-10-1-10" stroke="red"></line><line x1="223" y1="557" x2="253" y2="557" stroke-width="4" data-state="closed" class="door" id="door-3-16-3-17" stroke="red" style="stroke: rgb(255, 0, 0);"></line><line x1="347" y1="557" x2="377" y2="557" stroke-width="4" data-state="closed" class="door" id="door-7-16-7-17" stroke="red"></line><line x1="409" y1="464" x2="409" y2="494" stroke-width="4" data-state="closed" class="door" id="door-8-14-9-14" stroke="red"></line><line x1="440" y1="402" x2="470" y2="402" stroke-width="4" data-state="closed" class="door" id="door-10-11-10-12" stroke="red"></line><line x1="564" y1="464" x2="564" y2="494" stroke-width="4" data-state="closed" class="door" id="door-13-14-14-14" stroke="red"></line><line x1="347" y1="278" x2="377" y2="278" stroke-width="4" data-state="closed" class="door" id="door-7-7-7-8" stroke="red"></line><line x1="626" y1="278" x2="626" y2="308" stroke-width="4" data-state="closed" class="door" id="door-15-8-16-8" stroke="red"></line><g class="player" id="player-1" data-x="2" data-y="14" transform="translate(62, 434)"><circle cx="145" cy="45" r="10"></circle><text x="145" y="50" fill="#F1E9D2" text-anchor="middle" style="font-size: 15px; font-weight: bold;">1</text></g><g class="player" id="player-2" data-x="1" data-y="14" transform="translate(31, 434)"><circle cx="145" cy="45" r="10"></circle><text x="145" y="50" fill="#F1E9D2" text-anchor="middle" style="font-size: 15px; font-weight: bold;">2</text></g><g class="enemy" id="player-(" data-x="2" data-y="1" transform="translate(62, 31)"><circle cx="145" cy="45" r="10"></circle><text x="145" y="50" fill="#F1E9D2" text-anchor="middle" style="font-size: 15px; font-weight: bold;">(</text></g><g class="enemy" id="player-$" data-x="3" data-y="1" transform="translate(93, 31)"><circle cx="145" cy="45" r="10"></circle><text x="145" y="50" fill="#F1E9D2" text-anchor="middle" style="font-size: 15px; font-weight: bold;">$</text></g><g class="enemy" id="player-%" data-x="6" data-y="0" transform="translate(186, 0)"><circle cx="145" cy="45" r="10"></circle><text x="145" y="50" fill="#F1E9D2" text-anchor="middle" style="font-size: 15px; font-weight: bold;">%</text></g><g class="enemy" id="player-^" data-x="6" data-y="1" transform="translate(186, 31)"><circle cx="145" cy="45" r="10"></circle><text x="145" y="50" fill="#F1E9D2" text-anchor="middle" style="font-size: 15px; font-weight: bold;">^</text></g><g class="enemy" id="player-)" data-x="6" data-y="2" transform="translate(186, 62)"><circle cx="145" cy="45" r="10"></circle><text x="145" y="50" fill="#F1E9D2" text-anchor="middle" style="font-size: 15px; font-weight: bold;">)</text></g><g class="enemy" id="player-@" data-x="9" data-y="0" transform="translate(279, 0)"><circle cx="145" cy="45" r="10"></circle><text x="145" y="50" fill="#F1E9D2" text-anchor="middle" style="font-size: 15px; font-weight: bold;">@</text></g><g class="enemy" id="player-^" data-x="9" data-y="2" transform="translate(279, 62)"><circle cx="145" cy="45" r="10"></circle><text x="145" y="50" fill="#F1E9D2" text-anchor="middle" style="font-size: 15px; font-weight: bold;">^</text></g><g class="enemy" id="player-!" data-x="9" data-y="3" transform="translate(279, 93)"><circle cx="145" cy="45" r="10"></circle><text x="145" y="50" fill="#F1E9D2" text-anchor="middle" style="font-size: 15px; font-weight: bold;">!</text></g><g class="enemy" id="player-&amp;" data-x="3" data-y="5" transform="translate(93, 155)"><circle cx="145" cy="45" r="10"></circle><text x="145" y="50" fill="#F1E9D2" text-anchor="middle" style="font-size: 15px; font-weight: bold;">&amp;</text></g><g class="enemy" id="player-/" data-x="4" data-y="4" transform="translate(124, 124)"><circle cx="145" cy="45" r="10"></circle><text x="145" y="50" fill="#F1E9D2" text-anchor="middle" style="font-size: 15px; font-weight: bold;">/</text></g><g class="enemy" id="player-%" data-x="6" data-y="6" transform="translate(186, 186)"><circle cx="145" cy="45" r="10"></circle><text x="145" y="50" fill="#F1E9D2" text-anchor="middle" style="font-size: 15px; font-weight: bold;">%</text></g><g class="enemy" id="player-*" data-x="7" data-y="6" transform="translate(217, 186)"><circle cx="145" cy="45" r="10"></circle><text x="145" y="50" fill="#F1E9D2" text-anchor="middle" style="font-size: 15px; font-weight: bold;">*</text></g><g class="enemy" id="player-/" data-x="2" data-y="10" transform="translate(62, 310)"><circle cx="145" cy="45" r="10"></circle><text x="145" y="50" fill="#F1E9D2" text-anchor="middle" style="font-size: 15px; font-weight: bold;">/</text></g><g class="enemy" id="player-^" data-x="2" data-y="11" transform="translate(62, 341)"><circle cx="145" cy="45" r="10"></circle><text x="145" y="50" fill="#F1E9D2" text-anchor="middle" style="font-size: 15px; font-weight: bold;">^</text></g><g class="enemy" id="player-%" data-x="7" data-y="13" transform="translate(217, 403)"><circle cx="145" cy="45" r="10"></circle><text x="145" y="50" fill="#F1E9D2" text-anchor="middle" style="font-size: 15px; font-weight: bold;">%</text></g><g class="enemy" id="player-?" data-x="8" data-y="14" transform="translate(248, 434)"><circle cx="145" cy="45" r="10"></circle><text x="145" y="50" fill="#F1E9D2" text-anchor="middle" style="font-size: 15px; font-weight: bold;">?</text></g><g class="enemy" id="player-)" data-x="10" data-y="13" transform="translate(310, 403)"><circle cx="145" cy="45" r="10"></circle><text x="145" y="50" fill="#F1E9D2" text-anchor="middle" style="font-size: 15px; font-weight: bold;">)</text></g><g class="enemy" id="player-&amp;" data-x="10" data-y="15" transform="translate(310, 465)"><circle cx="145" cy="45" r="10"></circle><text x="145" y="50" fill="#F1E9D2" text-anchor="middle" style="font-size: 15px; font-weight: bold;">&amp;</text></g><g class="enemy" id="player-^" data-x="16" data-y="14" transform="translate(496, 434)"><circle cx="145" cy="45" r="10"></circle><text x="145" y="50" fill="#F1E9D2" text-anchor="middle" style="font-size: 15px; font-weight: bold;">^</text></g><g class="enemy" id="player-#" data-x="15" data-y="15" transform="translate(465, 465)"><circle cx="145" cy="45" r="10"></circle><text x="145" y="50" fill="#F1E9D2" text-anchor="middle" style="font-size: 15px; font-weight: bold;">#</text></g><g class="enemy" id="player-&amp;" data-x="14" data-y="7" transform="translate(434, 217)"><circle cx="145" cy="45" r="10"></circle><text x="145" y="50" fill="#F1E9D2" text-anchor="middle" style="font-size: 15px; font-weight: bold;">&amp;</text></g><g class="enemy" id="player-&amp;" data-x="11" data-y="10" transform="translate(341, 310)"><circle cx="145" cy="45" r="10"></circle><text x="145" y="50" fill="#F1E9D2" text-anchor="middle" style="font-size: 15px; font-weight: bold;">&amp;</text></g><g class="enemy" id="player-?" data-x="14" data-y="10" transform="translate(434, 310)"><circle cx="145" cy="45" r="10"></circle><text x="145" y="50" fill="#F1E9D2" text-anchor="middle" style="font-size: 15px; font-weight: bold;">?</text></g><g class="enemy" id="player-*" data-x="12" data-y="7" transform="translate(372, 217)"><circle cx="145" cy="45" r="10"></circle><text x="145" y="50" fill="#F1E9D2" text-anchor="middle" style="font-size: 15px; font-weight: bold;">*</text></g></svg>